<svg id="svg" version="1.1" xmlns="http://www.w3.org/2000/svg" xmlns:xlink="http://www.w3.org/1999/xlink" width="400" height="353.6082474226804" viewBox="0, 0, 400,353.6082474226804"><g id="svgg"><path id="path0" d="M30.150 0.481 C 29.713 0.698,29.355 1.076,29.355 1.322 C 29.355 1.567,29.116 1.768,28.824 1.768 C 28.501 1.768,28.294 2.098,28.294 2.609 C 28.294 3.072,28.055 3.648,27.763 3.890 C 27.400 4.192,27.229 5.014,27.221 6.498 C 27.214 7.840,27.012 8.926,26.691 9.351 C 26.345 9.808,26.172 10.894,26.172 12.593 C 26.172 14.292,26.027 15.197,25.739 15.293 C 25.464 15.385,25.259 16.450,25.174 18.240 C 25.101 19.782,24.898 21.195,24.722 21.379 C 24.547 21.564,24.403 22.962,24.403 24.485 C 24.403 26.621,24.282 27.301,23.873 27.458 C 23.459 27.617,23.342 28.318,23.342 30.630 C 23.342 33.033,23.241 33.599,22.812 33.599 C 22.382 33.599,22.281 34.170,22.281 36.616 C 22.281 38.972,22.165 39.678,21.751 39.837 C 21.338 39.995,21.220 40.692,21.220 42.971 C 21.220 45.249,21.102 45.947,20.690 46.105 C 20.279 46.263,20.159 46.952,20.159 49.160 C 20.159 51.368,20.040 52.058,19.629 52.215 C 19.216 52.373,19.098 53.071,19.098 55.349 C 19.098 57.628,18.980 58.325,18.568 58.483 C 18.158 58.641,18.037 59.325,18.037 61.490 C 18.037 63.654,17.916 64.338,17.507 64.496 C 17.093 64.654,16.976 65.357,16.976 67.679 C 16.976 70.001,16.859 70.703,16.446 70.862 C 16.038 71.018,15.915 71.690,15.915 73.754 C 15.915 75.673,15.763 76.595,15.385 76.974 C 15.007 77.351,14.854 78.270,14.854 80.157 C 14.854 82.043,14.701 82.962,14.324 83.340 C 13.948 83.715,13.793 84.630,13.793 86.468 C 13.793 88.136,13.645 89.115,13.380 89.204 C 13.124 89.289,12.905 90.515,12.805 92.416 C 12.716 94.107,12.504 95.491,12.334 95.491 C 12.164 95.491,12.025 96.844,12.025 98.497 C 12.025 100.933,11.924 101.503,11.494 101.503 C 11.062 101.503,10.964 102.093,10.964 104.686 C 10.964 107.280,10.866 107.869,10.433 107.869 C 10.004 107.869,9.903 108.435,9.903 110.837 C 9.903 113.150,9.785 113.851,9.372 114.009 C 8.958 114.168,8.842 114.875,8.842 117.230 C 8.842 119.677,8.741 120.248,8.311 120.248 C 7.882 120.248,7.781 120.813,7.781 123.216 C 7.781 125.528,7.663 126.229,7.250 126.388 C 6.839 126.546,6.720 127.235,6.720 129.443 C 6.720 131.651,6.600 132.340,6.189 132.498 C 5.781 132.655,5.659 133.333,5.659 135.450 C 5.659 137.461,5.516 138.316,5.128 138.638 C 4.738 138.962,4.598 139.821,4.598 141.876 C 4.598 144.036,4.477 144.719,4.067 144.877 C 3.659 145.033,3.537 145.712,3.537 147.828 C 3.537 149.840,3.394 150.695,3.006 151.017 C 2.618 151.339,2.476 152.193,2.476 154.200 C 2.476 156.206,2.333 157.061,1.945 157.383 C 1.557 157.705,1.415 158.561,1.415 160.580 C 1.415 162.338,1.268 163.385,1.009 163.471 C 0.774 163.550,0.487 164.937,0.327 166.772 C -0.550 176.803,0.093 182.847,2.037 182.847 C 2.237 182.847,2.492 183.086,2.604 183.378 C 2.782 183.841,5.591 183.908,24.923 183.908 L 47.038 183.908 47.038 185.108 C 47.038 185.848,46.835 186.386,46.508 186.512 C 46.098 186.669,45.977 187.352,45.977 189.512 C 45.977 191.567,45.836 192.426,45.447 192.750 C 45.058 193.072,44.916 193.927,44.916 195.938 C 44.916 198.055,44.794 198.733,44.385 198.890 C 43.978 199.046,43.855 199.719,43.855 201.783 C 43.855 203.701,43.703 204.623,43.324 205.002 C 42.943 205.383,42.794 206.311,42.794 208.299 C 42.794 210.431,42.672 211.112,42.263 211.268 C 41.856 211.425,41.733 212.097,41.733 214.161 C 41.733 216.079,41.581 217.002,41.202 217.380 C 40.825 217.758,40.672 218.677,40.672 220.563 C 40.672 222.450,40.519 223.369,40.141 223.746 C 39.766 224.122,39.611 225.037,39.611 226.875 C 39.611 228.621,39.468 229.520,39.174 229.618 C 38.889 229.713,38.691 230.796,38.604 232.742 C 38.528 234.426,38.297 235.829,38.071 235.971 C 37.849 236.111,37.615 237.477,37.543 239.066 C 37.472 240.630,37.286 241.910,37.130 241.910 C 36.973 241.910,36.732 243.265,36.594 244.921 C 36.456 246.578,36.203 248.019,36.032 248.125 C 35.861 248.231,35.721 249.661,35.721 251.303 C 35.721 253.721,35.620 254.288,35.190 254.288 C 34.761 254.288,34.660 254.854,34.660 257.257 C 34.660 259.569,34.542 260.270,34.129 260.429 C 33.715 260.587,33.599 261.294,33.599 263.649 C 33.599 266.096,33.498 266.667,33.068 266.667 C 32.639 266.667,32.538 267.232,32.538 269.635 C 32.538 271.947,32.420 272.648,32.007 272.807 C 31.593 272.966,31.477 273.672,31.477 276.028 C 31.477 278.474,31.376 279.045,30.946 279.045 C 30.517 279.045,30.416 279.611,30.416 282.013 C 30.416 284.326,30.298 285.027,29.885 285.185 C 29.472 285.344,29.355 286.046,29.355 288.368 C 29.355 290.691,29.238 291.393,28.824 291.551 C 28.414 291.709,28.294 292.393,28.294 294.558 C 28.294 296.723,28.173 297.407,27.763 297.564 C 27.350 297.722,27.233 298.425,27.233 300.747 C 27.233 303.069,27.116 303.771,26.702 303.930 C 26.292 304.087,26.172 304.772,26.172 306.944 C 26.172 308.875,26.033 309.801,25.731 309.902 C 25.437 310.000,25.248 311.077,25.164 313.115 C 25.095 314.801,24.895 316.180,24.721 316.180 C 24.546 316.180,24.403 317.533,24.403 319.187 C 24.403 321.623,24.303 322.193,23.873 322.193 C 23.440 322.193,23.342 322.782,23.342 325.376 C 23.342 327.969,23.244 328.559,22.812 328.559 C 22.382 328.559,22.281 329.129,22.281 331.565 C 22.281 334.001,22.181 334.571,21.751 334.571 C 21.324 334.571,21.220 335.117,21.220 337.357 C 21.220 339.402,21.079 340.260,20.690 340.584 C 19.908 341.233,19.908 350.766,20.690 351.066 C 20.981 351.178,21.220 351.491,21.220 351.762 C 21.220 352.033,21.459 352.255,21.751 352.255 C 22.042 352.255,22.281 352.475,22.281 352.744 C 22.281 353.652,23.639 353.660,194.341 353.660 C 365.044 353.660,366.401 353.652,366.401 352.744 C 366.401 352.475,366.640 352.255,366.932 352.255 C 367.224 352.255,367.462 351.953,367.462 351.585 C 367.462 351.217,367.701 350.824,367.993 350.712 C 368.365 350.569,368.523 349.989,368.523 348.767 C 368.523 347.545,368.682 346.965,369.054 346.822 C 369.451 346.669,369.584 346.032,369.584 344.283 C 369.584 342.679,369.751 341.782,370.115 341.417 C 370.485 341.047,370.645 340.142,370.645 338.425 C 370.645 336.563,370.775 335.914,371.176 335.760 C 371.580 335.605,371.706 334.944,371.706 332.980 C 371.706 331.015,371.833 330.354,372.237 330.199 C 372.629 330.049,372.770 329.415,372.779 327.774 C 372.786 326.384,372.984 325.296,373.309 324.866 C 373.629 324.443,373.833 323.358,373.840 322.037 C 373.847 320.716,374.050 319.631,374.370 319.207 C 374.699 318.772,374.889 317.704,374.889 316.290 C 374.889 315.038,375.045 314.058,375.243 314.058 C 375.447 314.058,375.597 312.938,375.597 311.406 C 375.597 309.284,375.703 308.753,376.127 308.753 C 376.552 308.753,376.658 308.223,376.658 306.101 C 376.658 303.979,376.764 303.448,377.188 303.448 C 377.610 303.448,377.719 302.935,377.719 300.947 C 377.719 299.196,377.878 298.287,378.249 297.916 C 378.619 297.546,378.780 296.640,378.780 294.924 C 378.780 293.062,378.909 292.413,379.310 292.259 C 379.710 292.105,379.841 291.462,379.841 289.655 C 379.841 287.848,379.972 287.205,380.371 287.052 C 380.769 286.899,380.902 286.262,380.902 284.513 C 380.902 282.909,381.068 282.012,381.432 281.647 C 381.802 281.277,381.963 280.372,381.963 278.655 C 381.963 276.793,382.092 276.144,382.493 275.990 C 382.899 275.834,383.024 275.170,383.024 273.172 C 383.024 271.083,383.131 270.557,383.554 270.557 C 383.978 270.557,384.085 270.031,384.085 267.942 C 384.085 265.944,384.210 265.280,384.615 265.124 C 385.013 264.972,385.146 264.335,385.146 262.585 C 385.146 260.981,385.312 260.084,385.676 259.720 C 386.039 259.357,386.207 258.462,386.207 256.890 C 386.207 255.318,386.375 254.424,386.737 254.061 C 387.099 253.699,387.268 252.806,387.268 251.257 C 387.268 249.977,387.422 248.983,387.622 248.983 C 387.826 248.983,387.975 247.863,387.975 246.331 C 387.975 244.209,388.081 243.678,388.506 243.678 C 388.927 243.678,389.036 243.164,389.036 241.177 C 389.036 239.426,389.195 238.517,389.567 238.146 C 389.943 237.769,390.097 236.852,390.097 234.988 C 390.097 232.888,390.204 232.361,390.628 232.361 C 391.048 232.361,391.158 231.854,391.158 229.923 C 391.158 228.082,391.288 227.435,391.689 227.281 C 392.090 227.128,392.219 226.480,392.219 224.629 C 392.219 222.778,392.349 222.130,392.750 221.976 C 393.157 221.820,393.280 221.149,393.280 219.098 C 393.280 217.047,393.404 216.376,393.811 216.220 C 394.216 216.064,394.341 215.399,394.341 213.402 C 394.341 211.313,394.448 210.787,394.872 210.787 C 395.296 210.787,395.402 210.261,395.402 208.172 C 395.402 206.174,395.527 205.510,395.933 205.354 C 396.330 205.201,396.463 204.565,396.463 202.815 C 396.463 201.211,396.629 200.314,396.994 199.949 C 397.357 199.587,397.524 198.692,397.524 197.120 C 397.524 195.548,397.692 194.654,398.055 194.291 C 398.415 193.931,398.585 193.039,398.585 191.516 C 398.585 190.162,398.744 189.219,398.985 189.139 C 399.208 189.065,399.511 187.682,399.670 186.015 C 400.566 176.631,399.913 170.822,397.964 170.822 C 397.764 170.822,397.508 170.584,397.396 170.292 C 397.218 169.828,394.243 169.761,373.574 169.762 L 349.956 169.763 350.078 167.387 C 350.145 166.080,350.423 164.691,350.697 164.301 C 350.995 163.875,351.194 162.706,351.194 161.371 C 351.194 160.127,351.349 159.151,351.547 159.151 C 351.749 159.151,351.901 158.103,351.901 156.713 C 351.901 154.873,352.031 154.226,352.431 154.072 C 352.834 153.917,352.962 153.263,352.962 151.356 C 352.962 149.595,353.121 148.686,353.492 148.314 C 353.860 147.946,354.023 147.044,354.023 145.371 C 354.023 143.552,354.154 142.908,354.553 142.755 C 354.955 142.600,355.084 141.948,355.084 140.064 C 355.084 138.089,355.193 137.577,355.615 137.577 C 356.038 137.577,356.145 137.051,356.145 134.963 C 356.145 132.965,356.270 132.300,356.676 132.144 C 357.082 131.988,357.206 131.317,357.206 129.266 C 357.206 127.215,357.330 126.544,357.737 126.388 C 358.137 126.234,358.267 125.586,358.267 123.735 C 358.267 121.885,358.397 121.237,358.798 121.083 C 359.193 120.931,359.328 120.299,359.328 118.593 C 359.328 117.032,359.496 116.138,359.859 115.776 C 360.213 115.422,360.393 114.519,360.400 113.061 C 360.407 111.702,360.608 110.616,360.931 110.189 C 361.251 109.766,361.454 108.680,361.461 107.359 C 361.468 106.039,361.672 104.953,361.992 104.530 C 362.312 104.107,362.511 103.045,362.511 101.764 C 362.511 100.387,362.690 99.505,363.042 99.154 C 363.403 98.792,363.572 97.899,363.572 96.350 C 363.572 95.070,363.727 94.076,363.926 94.076 C 364.128 94.076,364.279 93.007,364.279 91.575 C 364.279 89.824,364.438 88.915,364.810 88.544 C 365.178 88.176,365.340 87.274,365.340 85.601 C 365.340 83.782,365.471 83.138,365.871 82.984 C 366.273 82.830,366.401 82.178,366.401 80.294 C 366.401 78.319,366.511 77.807,366.932 77.807 C 367.356 77.807,367.462 77.281,367.462 75.193 C 367.462 73.195,367.588 72.530,367.993 72.374 C 368.394 72.221,368.523 71.573,368.523 69.727 C 368.523 67.987,368.676 67.157,369.054 66.844 C 369.438 66.525,369.584 65.682,369.584 63.794 C 369.584 61.710,369.691 61.185,370.115 61.185 C 370.535 61.185,370.645 60.678,370.645 58.747 C 370.645 56.906,370.775 56.259,371.176 56.106 C 371.574 55.953,371.709 55.302,371.718 53.504 C 371.725 51.958,371.914 50.861,372.248 50.419 C 372.575 49.987,372.767 48.921,372.767 47.544 C 372.767 46.031,372.931 45.221,373.298 44.916 C 373.669 44.608,373.828 43.791,373.828 42.195 C 373.828 40.639,373.997 39.745,374.359 39.384 C 374.721 39.022,374.889 38.129,374.889 36.580 C 374.889 35.300,375.044 34.306,375.243 34.306 C 375.445 34.306,375.597 33.259,375.597 31.874 C 375.597 30.143,375.750 29.314,376.127 29.001 C 376.505 28.687,376.658 27.858,376.658 26.117 C 376.658 24.271,376.788 23.624,377.188 23.470 C 377.594 23.315,377.719 22.650,377.719 20.652 C 377.719 18.563,377.826 18.037,378.249 18.037 C 378.673 18.037,378.780 17.511,378.780 15.422 C 378.780 13.425,378.905 12.760,379.310 12.604 C 379.746 12.437,379.841 11.541,379.841 7.604 C 379.841 3.666,379.746 2.771,379.310 2.604 C 379.019 2.492,378.780 2.178,378.780 1.907 C 378.780 1.636,378.621 1.415,378.426 1.415 C 378.232 1.415,377.754 1.096,377.365 0.707 C 376.523 -0.135,31.847 -0.359,30.150 0.481 M362.953 15.088 C 362.659 15.207,362.511 16.092,362.511 17.738 C 362.511 19.464,362.351 20.370,361.981 20.740 C 361.613 21.108,361.450 22.010,361.450 23.683 C 361.450 25.502,361.319 26.146,360.920 26.299 C 360.518 26.454,360.389 27.106,360.389 28.990 C 360.389 30.964,360.280 31.477,359.859 31.477 C 359.435 31.477,359.328 32.003,359.328 34.091 C 359.328 36.089,359.203 36.754,358.798 36.910 C 358.391 37.066,358.267 37.737,358.267 39.788 C 358.267 41.839,358.143 42.510,357.737 42.666 C 357.331 42.822,357.206 43.486,357.206 45.484 C 357.206 47.573,357.099 48.099,356.676 48.099 C 356.258 48.099,356.145 48.593,356.145 50.423 C 356.145 52.017,355.978 52.914,355.615 53.278 C 355.260 53.632,355.080 54.535,355.073 55.993 C 355.066 57.352,354.865 58.438,354.542 58.865 C 354.206 59.310,354.023 60.385,354.023 61.922 C 354.023 63.703,353.891 64.343,353.492 64.496 C 353.091 64.650,352.962 65.299,352.962 67.157 C 352.962 68.654,352.807 69.665,352.566 69.746 C 352.348 69.819,352.089 71.018,351.988 72.428 C 351.888 73.830,351.668 74.978,351.500 74.978 C 351.331 74.978,351.194 76.072,351.194 77.410 C 351.194 79.141,351.041 79.970,350.663 80.283 C 350.287 80.595,350.133 81.420,350.133 83.112 C 350.133 84.804,349.978 85.630,349.602 85.942 C 349.225 86.255,349.072 87.084,349.072 88.814 C 349.072 90.741,348.961 91.247,348.541 91.247 C 348.117 91.247,348.011 91.773,348.011 93.861 C 348.011 95.859,347.885 96.524,347.480 96.680 C 347.079 96.833,346.950 97.481,346.950 99.327 C 346.950 101.067,346.797 101.897,346.419 102.210 C 346.035 102.529,345.889 103.372,345.889 105.260 C 345.889 107.343,345.782 107.869,345.358 107.869 C 344.937 107.869,344.828 108.381,344.828 110.356 C 344.828 112.240,344.699 112.892,344.297 113.046 C 343.901 113.198,343.764 113.845,343.755 115.599 C 343.748 117.102,343.557 118.196,343.225 118.635 C 342.888 119.080,342.706 120.155,342.706 121.692 C 342.706 123.473,342.574 124.113,342.175 124.266 C 341.778 124.418,341.645 125.055,341.645 126.805 C 341.645 128.409,341.478 129.306,341.114 129.670 C 340.753 130.032,340.584 130.925,340.584 132.474 C 340.584 133.725,340.437 134.748,340.258 134.748 C 340.079 134.748,339.833 135.822,339.711 137.135 C 339.589 138.448,339.337 139.799,339.152 140.137 C 338.967 140.474,338.815 141.768,338.815 143.011 C 338.815 144.589,338.655 145.404,338.285 145.712 C 337.907 146.025,337.754 146.854,337.754 148.584 C 337.754 150.511,337.644 151.017,337.224 151.017 C 336.800 151.017,336.693 151.543,336.693 153.631 C 336.693 155.629,336.568 156.294,336.163 156.450 C 335.762 156.604,335.632 157.251,335.632 159.097 C 335.632 160.837,335.480 161.667,335.102 161.981 C 334.718 162.299,334.571 163.142,334.571 165.030 C 334.571 167.114,334.464 167.639,334.041 167.639 C 333.749 167.639,333.510 167.878,333.510 168.170 C 333.510 168.641,315.630 168.700,174.713 168.700 L 15.915 168.700 15.915 167.274 C 15.915 166.333,16.095 165.780,16.446 165.645 C 16.859 165.486,16.976 164.784,16.976 162.462 C 16.976 160.140,17.093 159.438,17.507 159.279 C 17.916 159.122,18.037 158.438,18.037 156.273 C 18.037 154.108,18.158 153.424,18.568 153.267 C 18.981 153.108,19.098 152.406,19.098 150.084 C 19.098 147.762,19.215 147.059,19.629 146.901 C 20.037 146.744,20.159 146.065,20.159 143.949 C 20.159 141.937,20.301 141.083,20.690 140.760 C 21.079 140.437,21.220 139.578,21.220 137.523 C 21.220 135.363,21.341 134.679,21.751 134.522 C 22.159 134.365,22.281 133.687,22.281 131.570 C 22.281 129.559,22.423 128.704,22.812 128.382 C 23.200 128.060,23.342 127.205,23.342 125.199 C 23.342 123.258,23.489 122.334,23.845 122.039 C 24.330 121.636,24.414 120.995,24.964 113.461 C 25.090 111.747,25.349 110.587,25.667 110.323 C 26.021 110.029,26.172 109.119,26.172 107.270 C 26.172 105.400,26.325 104.482,26.702 104.105 C 27.077 103.730,27.233 102.816,27.233 100.991 C 27.233 99.125,27.380 98.284,27.763 97.966 C 28.148 97.647,28.294 96.802,28.294 94.892 C 28.294 93.021,28.447 92.103,28.824 91.727 C 29.195 91.356,29.358 90.430,29.366 88.657 C 29.373 86.988,29.555 85.883,29.896 85.432 C 30.236 84.983,30.416 83.904,30.416 82.312 C 30.416 80.621,30.577 79.717,30.946 79.348 C 31.321 78.973,31.477 78.058,31.477 76.220 C 31.477 74.488,31.621 73.574,31.909 73.478 C 32.184 73.386,32.392 72.315,32.482 70.531 C 32.562 68.944,32.834 67.425,33.111 67.030 C 33.416 66.594,33.599 65.378,33.599 63.788 C 33.599 62.115,33.745 61.195,34.025 61.101 C 34.291 61.013,34.501 59.967,34.581 58.331 C 34.652 56.886,34.938 55.201,35.216 54.588 C 35.493 53.976,35.721 52.424,35.721 51.140 C 35.721 49.820,35.874 48.806,36.074 48.806 C 36.282 48.806,36.428 47.581,36.428 45.838 C 36.428 43.526,36.545 42.825,36.958 42.666 C 37.373 42.507,37.489 41.801,37.489 39.445 C 37.489 36.999,37.589 36.428,38.019 36.428 C 38.449 36.428,38.550 35.862,38.550 33.460 C 38.550 31.147,38.667 30.446,39.080 30.288 C 39.495 30.129,39.611 29.423,39.611 27.067 C 39.611 24.621,39.711 24.050,40.141 24.050 C 40.571 24.050,40.672 23.484,40.672 21.081 C 40.672 18.769,40.789 18.068,41.202 17.909 C 41.553 17.775,41.733 17.221,41.733 16.280 L 41.733 14.854 202.564 14.882 C 291.021 14.897,363.196 14.990,362.953 15.088 M89.350 36.251 C 89.188 36.674,88.426 36.782,85.599 36.782 C 83.470 36.782,82.051 36.923,82.051 37.135 C 82.051 37.330,81.506 37.489,80.839 37.489 C 80.172 37.489,79.387 37.728,79.096 38.019 C 78.804 38.311,78.032 38.550,77.381 38.550 C 76.729 38.550,75.882 38.765,75.499 39.028 C 75.115 39.290,74.363 39.612,73.828 39.742 C 73.294 39.872,72.856 40.134,72.856 40.325 C 72.856 40.516,72.453 40.672,71.961 40.672 C 71.468 40.672,70.974 40.911,70.862 41.202 C 70.750 41.494,70.436 41.733,70.166 41.733 C 69.895 41.733,69.673 41.972,69.673 42.263 C 69.673 42.595,69.338 42.794,68.778 42.794 C 68.285 42.794,67.791 43.033,67.679 43.324 C 67.567 43.616,67.253 43.855,66.982 43.855 C 66.712 43.855,66.490 44.094,66.490 44.385 C 66.490 44.677,66.251 44.916,65.959 44.916 C 65.668 44.916,65.429 45.155,65.429 45.447 C 65.429 45.738,65.190 45.977,64.898 45.977 C 64.607 45.977,64.368 46.216,64.368 46.508 C 64.368 46.799,64.129 47.038,63.837 47.038 C 63.546 47.038,63.307 47.260,63.307 47.531 C 63.307 47.802,63.068 48.115,62.776 48.227 C 62.485 48.339,62.246 48.666,62.246 48.954 C 62.246 49.242,61.848 49.907,61.362 50.431 C 60.875 50.956,60.477 51.760,60.477 52.218 C 60.477 52.722,60.268 53.050,59.947 53.050 C 59.598 53.050,59.416 53.400,59.416 54.074 C 59.416 54.657,59.188 55.184,58.886 55.300 C 58.525 55.439,58.355 56.003,58.355 57.063 C 58.355 58.018,58.150 58.793,57.825 59.063 C 57.389 59.425,57.294 60.657,57.294 66.003 C 57.294 71.544,57.373 72.502,57.825 72.502 C 58.218 72.502,58.355 72.915,58.355 74.094 C 58.355 75.273,58.493 75.685,58.886 75.685 C 59.240 75.685,59.416 76.039,59.416 76.746 C 59.416 77.454,59.593 77.807,59.947 77.807 C 60.301 77.807,60.477 78.161,60.477 78.868 C 60.477 79.452,60.619 79.929,60.793 79.929 C 60.966 79.929,61.213 80.348,61.342 80.860 C 61.577 81.799,65.432 85.942,66.070 85.942 C 66.259 85.942,66.506 86.180,66.618 86.472 C 66.730 86.764,67.224 87.003,67.717 87.003 C 68.277 87.003,68.612 87.201,68.612 87.533 C 68.612 87.825,68.851 88.064,69.142 88.064 C 69.434 88.064,69.673 88.302,69.673 88.594 C 69.673 88.948,70.027 89.125,70.734 89.125 C 71.441 89.125,71.795 89.302,71.795 89.655 C 71.795 89.987,72.130 90.186,72.690 90.186 C 73.183 90.186,73.677 90.424,73.789 90.716 C 73.903 91.012,74.428 91.247,74.978 91.247 C 75.527 91.247,76.053 91.481,76.167 91.777 C 76.295 92.110,76.835 92.308,77.619 92.308 C 78.494 92.308,78.868 92.467,78.868 92.838 C 78.868 93.231,79.281 93.369,80.460 93.369 C 81.639 93.369,82.051 93.506,82.051 93.899 C 82.051 94.293,82.467 94.430,83.668 94.430 C 84.634 94.430,85.499 94.643,85.815 94.960 C 86.107 95.252,86.958 95.491,87.706 95.491 C 88.454 95.491,89.126 95.670,89.199 95.889 C 89.272 96.108,90.200 96.369,91.262 96.468 C 92.349 96.569,93.315 96.858,93.475 97.130 C 93.637 97.407,94.345 97.613,95.134 97.613 C 95.891 97.613,96.608 97.772,96.729 97.966 C 96.849 98.161,97.716 98.320,98.657 98.320 C 99.850 98.320,100.428 98.480,100.570 98.851 C 100.717 99.234,101.317 99.381,102.730 99.381 C 104.233 99.381,104.686 99.504,104.686 99.912 C 104.686 100.303,105.095 100.442,106.240 100.442 C 107.295 100.442,107.859 100.612,107.997 100.973 C 108.141 101.347,108.725 101.503,109.980 101.503 C 111.326 101.503,111.760 101.632,111.760 102.034 C 111.760 102.387,112.113 102.564,112.821 102.564 C 113.528 102.564,113.882 102.741,113.882 103.095 C 113.882 103.448,114.235 103.625,114.943 103.625 C 115.650 103.625,116.004 103.802,116.004 104.156 C 116.004 104.509,116.357 104.686,117.065 104.686 C 117.772 104.686,118.126 104.863,118.126 105.217 C 118.126 105.508,118.364 105.747,118.656 105.747 C 118.948 105.747,119.187 105.986,119.187 106.278 C 119.187 106.569,119.425 106.808,119.717 106.808 C 120.009 106.808,120.248 107.047,120.248 107.339 C 120.248 107.630,120.447 107.870,120.690 107.872 C 121.136 107.875,122.016 109.420,122.016 110.201 C 122.016 110.433,122.255 110.714,122.546 110.826 C 122.918 110.969,123.077 111.549,123.077 112.766 C 123.077 113.878,123.268 114.661,123.607 114.943 C 123.899 115.185,124.138 115.662,124.138 116.004 C 124.138 116.345,123.899 116.822,123.607 117.065 C 123.259 117.354,123.077 118.143,123.077 119.369 C 123.077 120.700,122.925 121.291,122.546 121.436 C 122.255 121.548,122.016 121.963,122.016 122.358 C 122.016 122.754,121.857 123.077,121.662 123.077 C 121.468 123.077,121.309 123.231,121.309 123.419 C 121.309 123.864,118.912 126.260,118.467 126.260 C 118.279 126.260,118.126 126.499,118.126 126.790 C 118.126 127.082,117.887 127.321,117.595 127.321 C 117.303 127.321,117.065 127.560,117.065 127.851 C 117.065 128.183,116.729 128.382,116.169 128.382 C 115.677 128.382,115.188 128.606,115.083 128.881 C 114.977 129.155,114.505 129.476,114.033 129.595 C 113.561 129.713,113.174 129.966,113.174 130.157 C 113.174 130.348,112.697 130.504,112.113 130.504 C 111.406 130.504,111.052 130.681,111.052 131.034 C 111.052 131.426,110.642 131.565,109.486 131.565 C 108.565 131.565,107.701 131.784,107.389 132.095 C 106.982 132.503,105.954 132.626,102.961 132.626 C 99.621 132.626,99.011 132.715,98.702 133.245 C 98.359 133.834,98.341 133.834,98.331 133.245 C 98.321 132.691,97.880 132.626,94.114 132.626 C 90.701 132.626,89.869 132.526,89.704 132.095 C 89.571 131.749,89.021 131.565,88.118 131.565 C 87.321 131.565,86.549 131.340,86.295 131.034 C 86.046 130.735,85.275 130.504,84.522 130.504 C 83.662 130.504,83.116 130.315,82.984 129.973 C 82.872 129.682,82.453 129.443,82.051 129.443 C 81.650 129.443,81.230 129.204,81.118 128.912 C 81.006 128.621,80.710 128.382,80.460 128.382 C 80.210 128.382,79.913 128.143,79.801 127.851 C 79.689 127.560,79.195 127.321,78.703 127.321 C 78.143 127.321,77.807 127.122,77.807 126.790 C 77.807 126.499,77.629 126.260,77.412 126.260 C 77.195 126.260,76.399 125.623,75.644 124.845 C 74.889 124.067,74.112 123.431,73.917 123.431 C 73.723 123.431,73.563 123.250,73.563 123.029 C 73.563 122.808,73.165 122.259,72.679 121.808 C 72.193 121.357,71.795 120.658,71.795 120.253 C 71.795 119.849,71.556 119.426,71.264 119.314 C 70.962 119.198,70.734 118.671,70.734 118.088 C 70.734 117.414,70.553 117.065,70.203 117.065 C 69.796 117.065,69.673 116.611,69.673 115.108 C 69.673 113.696,69.525 113.095,69.142 112.948 C 68.762 112.802,68.612 112.207,68.612 110.837 L 68.612 108.930 63.527 108.930 C 59.438 108.930,58.356 109.034,58.002 109.461 C 57.695 109.831,56.879 109.991,55.306 109.991 L 53.050 109.991 53.050 113.893 C 53.050 117.034,53.154 117.834,53.581 117.998 C 53.962 118.144,54.111 118.739,54.111 120.109 C 54.111 121.568,54.236 122.016,54.642 122.016 C 55.009 122.016,55.172 122.384,55.172 123.210 C 55.172 123.867,55.411 124.603,55.703 124.845 C 55.995 125.087,56.233 125.744,56.233 126.303 C 56.233 126.972,56.415 127.321,56.764 127.321 C 57.088 127.321,57.294 127.651,57.294 128.167 C 57.294 128.633,57.533 129.105,57.825 129.217 C 58.117 129.329,58.355 129.647,58.355 129.925 C 58.355 130.202,58.594 130.520,58.886 130.632 C 59.178 130.744,59.416 131.159,59.416 131.554 C 59.416 131.949,59.567 132.272,59.750 132.272 C 59.934 132.272,60.366 132.750,60.711 133.333 C 61.055 133.917,61.542 134.394,61.792 134.394 C 62.041 134.394,62.246 134.633,62.246 134.925 C 62.246 135.217,62.485 135.455,62.776 135.455 C 63.068 135.455,63.307 135.694,63.307 135.986 C 63.307 136.278,63.546 136.516,63.837 136.516 C 64.129 136.516,64.368 136.755,64.368 137.047 C 64.368 137.339,64.607 137.577,64.898 137.577 C 65.190 137.577,65.429 137.816,65.429 138.108 C 65.429 138.400,65.668 138.638,65.959 138.638 C 66.251 138.638,66.490 138.877,66.490 139.169 C 66.490 139.501,66.825 139.699,67.385 139.699 C 67.878 139.699,68.372 139.938,68.484 140.230 C 68.596 140.522,68.909 140.760,69.180 140.760 C 69.451 140.760,69.673 140.999,69.673 141.291 C 69.673 141.645,70.027 141.821,70.734 141.821 C 71.441 141.821,71.795 141.998,71.795 142.352 C 71.795 142.684,72.130 142.882,72.690 142.882 C 73.183 142.882,73.677 143.121,73.789 143.413 C 73.913 143.735,74.447 143.943,75.149 143.943 C 75.785 143.943,76.504 144.182,76.746 144.474 C 76.988 144.766,77.631 145.004,78.175 145.004 C 78.718 145.004,79.226 145.194,79.303 145.426 C 79.386 145.674,80.415 145.909,81.809 145.997 C 83.109 146.080,84.173 146.288,84.173 146.460 C 84.173 146.632,85.690 146.773,87.544 146.773 C 90.214 146.773,90.958 146.883,91.119 147.303 C 91.290 147.751,92.446 147.834,98.497 147.834 C 104.548 147.834,105.703 147.751,105.875 147.303 C 106.033 146.893,106.720 146.773,108.919 146.773 C 110.577 146.773,111.760 146.626,111.760 146.419 C 111.760 146.225,112.544 146.065,113.503 146.065 C 114.492 146.065,115.452 145.860,115.722 145.589 C 115.984 145.327,116.791 145.002,117.516 144.866 C 118.240 144.730,118.833 144.467,118.833 144.281 C 118.833 144.095,119.293 143.943,119.856 143.943 C 120.439 143.943,120.967 143.715,121.083 143.413 C 121.195 143.121,121.615 142.882,122.016 142.882 C 122.417 142.882,122.837 142.644,122.949 142.352 C 123.061 142.060,123.538 141.821,124.010 141.821 C 124.482 141.821,124.959 141.583,125.071 141.291 C 125.183 140.999,125.496 140.760,125.767 140.760 C 126.038 140.760,126.260 140.540,126.260 140.271 C 126.260 140.002,126.538 139.681,126.879 139.558 C 128.744 138.884,132.182 135.618,133.021 133.723 C 133.288 133.119,133.706 132.626,133.950 132.626 C 134.194 132.626,134.394 132.382,134.394 132.084 C 134.394 131.787,134.633 131.451,134.925 131.339 C 135.217 131.227,135.455 130.755,135.455 130.289 C 135.455 129.773,135.662 129.443,135.986 129.443 C 136.340 129.443,136.516 129.089,136.516 128.382 C 136.516 127.675,136.693 127.321,137.047 127.321 C 137.440 127.321,137.577 126.908,137.577 125.729 C 137.577 124.551,137.715 124.138,138.108 124.138 C 138.515 124.138,138.638 123.685,138.638 122.182 C 138.638 120.769,138.786 120.169,139.169 120.022 C 139.604 119.855,139.699 118.963,139.699 115.056 C 139.699 111.295,139.588 110.183,139.169 109.764 C 138.843 109.438,138.638 108.571,138.638 107.515 C 138.638 106.460,138.434 105.593,138.108 105.267 C 137.816 104.975,137.577 104.248,137.577 103.650 C 137.577 102.921,137.403 102.564,137.047 102.564 C 136.693 102.564,136.516 102.210,136.516 101.503 C 136.516 100.796,136.340 100.442,135.986 100.442 C 135.656 100.442,135.455 100.108,135.455 99.558 C 135.455 99.008,135.255 98.674,134.925 98.674 C 134.633 98.674,134.394 98.435,134.394 98.143 C 134.394 97.851,134.156 97.613,133.864 97.613 C 133.572 97.613,133.333 97.374,133.333 97.082 C 133.333 96.790,133.174 96.552,132.980 96.552 C 132.785 96.552,132.626 96.313,132.626 96.021 C 132.626 95.729,132.387 95.491,132.095 95.491 C 131.804 95.491,131.565 95.252,131.565 94.960 C 131.565 94.668,131.326 94.430,131.034 94.430 C 130.743 94.430,130.504 94.191,130.504 93.899 C 130.504 93.607,130.265 93.369,129.973 93.369 C 129.682 93.369,129.443 93.130,129.443 92.838 C 129.443 92.546,129.221 92.308,128.950 92.308 C 128.679 92.308,128.366 92.069,128.254 91.777 C 128.142 91.485,127.648 91.247,127.155 91.247 C 126.663 91.247,126.258 91.048,126.256 90.805 C 126.254 90.561,125.577 90.045,124.753 89.658 C 123.928 89.270,123.043 88.753,122.786 88.508 C 122.529 88.264,122.052 88.059,121.725 88.052 C 121.399 88.046,120.823 87.807,120.445 87.522 C 120.068 87.236,119.312 87.003,118.765 87.003 C 118.219 87.003,117.772 86.845,117.772 86.653 C 117.772 86.461,117.135 86.202,116.357 86.077 C 115.579 85.953,114.943 85.712,114.943 85.543 C 114.943 85.373,114.226 85.234,113.351 85.234 C 112.172 85.234,111.760 85.097,111.760 84.704 C 111.760 84.291,111.288 84.173,109.637 84.173 C 107.987 84.173,107.515 84.055,107.515 83.643 C 107.515 83.237,107.068 83.112,105.608 83.112 C 104.239 83.112,103.643 82.963,103.497 82.582 C 103.350 82.199,102.750 82.051,101.337 82.051 C 99.834 82.051,99.381 81.928,99.381 81.521 C 99.381 81.113,98.928 80.990,97.425 80.990 C 96.012 80.990,95.412 80.843,95.265 80.460 C 95.128 80.103,94.567 79.929,93.551 79.929 C 92.640 79.929,91.866 79.719,91.600 79.399 C 91.335 79.079,90.561 78.868,89.650 78.868 C 88.633 78.868,88.073 78.695,87.936 78.338 C 87.793 77.966,87.212 77.807,85.991 77.807 C 84.769 77.807,84.188 77.649,84.045 77.277 C 83.933 76.985,83.458 76.746,82.990 76.746 C 82.521 76.746,81.940 76.508,81.698 76.216 C 81.455 75.924,80.794 75.685,80.229 75.685 C 79.640 75.685,79.113 75.458,78.996 75.155 C 78.884 74.863,78.571 74.624,78.300 74.624 C 78.029 74.624,77.807 74.465,77.807 74.271 C 77.807 74.076,77.648 73.917,77.454 73.917 C 77.259 73.917,76.782 73.599,76.393 73.210 C 76.004 72.821,75.685 72.343,75.685 72.149 C 75.685 71.954,75.447 71.795,75.155 71.795 C 74.863 71.795,74.624 71.556,74.624 71.264 C 74.624 70.973,74.385 70.734,74.094 70.734 C 73.742 70.734,73.563 70.383,73.563 69.694 C 73.563 69.122,73.404 68.555,73.210 68.435 C 73.015 68.315,72.856 66.882,72.856 65.252 C 72.856 63.622,73.015 62.189,73.210 62.069 C 73.404 61.949,73.563 61.303,73.563 60.633 C 73.563 59.787,73.725 59.416,74.094 59.416 C 74.385 59.416,74.624 59.173,74.624 58.875 C 74.624 58.577,74.863 58.242,75.155 58.130 C 75.447 58.018,75.685 57.659,75.685 57.332 C 75.685 56.747,78.861 54.111,79.566 54.111 C 79.766 54.111,79.929 53.873,79.929 53.581 C 79.929 53.249,80.265 53.050,80.825 53.050 C 81.317 53.050,81.811 52.812,81.923 52.520 C 82.056 52.174,82.606 51.989,83.504 51.989 C 84.492 51.989,84.881 51.840,84.881 51.459 C 84.881 51.038,85.393 50.928,87.367 50.928 C 89.252 50.928,89.904 50.800,90.058 50.398 C 90.227 49.957,91.208 49.867,95.844 49.867 C 100.481 49.867,101.462 49.957,101.631 50.398 C 101.783 50.795,102.419 50.928,104.156 50.928 C 105.893 50.928,106.528 51.062,106.680 51.459 C 106.796 51.761,107.324 51.989,107.907 51.989 C 108.581 51.989,108.930 52.171,108.930 52.520 C 108.930 52.852,109.265 53.050,109.825 53.050 C 110.318 53.050,110.812 53.289,110.924 53.581 C 111.036 53.873,111.509 54.111,111.974 54.111 C 112.491 54.111,112.821 54.318,112.821 54.642 C 112.821 54.934,113.059 55.172,113.351 55.172 C 113.643 55.172,113.882 55.411,113.882 55.703 C 113.882 55.995,114.120 56.233,114.412 56.233 C 114.704 56.233,114.943 56.472,114.943 56.764 C 114.943 57.056,115.181 57.294,115.473 57.294 C 115.765 57.294,116.004 57.533,116.004 57.825 C 116.004 58.117,116.242 58.355,116.534 58.355 C 116.864 58.355,117.065 58.689,117.065 59.240 C 117.065 59.790,117.265 60.124,117.595 60.124 C 117.887 60.124,118.126 60.343,118.126 60.611 C 118.126 60.879,118.364 61.296,118.656 61.538 C 118.948 61.781,119.187 62.516,119.187 63.173 C 119.187 63.999,119.350 64.368,119.717 64.368 C 120.134 64.368,120.248 64.860,120.248 66.678 C 120.248 68.405,120.381 69.039,120.778 69.191 C 121.070 69.303,121.309 69.696,121.309 70.064 C 121.309 70.941,126.044 71.062,127.165 70.215 C 127.680 69.825,128.936 69.693,132.184 69.684 L 136.516 69.673 136.516 67.594 C 136.516 66.178,136.347 65.375,135.986 65.075 C 135.602 64.757,135.455 63.914,135.455 62.026 C 135.455 59.942,135.348 59.416,134.925 59.416 C 134.541 59.416,134.394 59.022,134.394 57.991 C 134.394 57.050,134.214 56.496,133.864 56.361 C 133.561 56.245,133.333 55.718,133.333 55.135 C 133.333 54.572,133.191 54.111,133.018 54.111 C 132.845 54.111,132.593 53.675,132.459 53.142 C 132.326 52.609,132.109 52.092,131.979 51.993 C 131.622 51.721,130.864 50.479,130.629 49.779 C 130.515 49.439,130.201 49.160,129.932 49.160 C 129.663 49.160,129.443 48.921,129.443 48.630 C 129.443 48.338,129.204 48.099,128.912 48.099 C 128.621 48.099,128.382 47.860,128.382 47.569 C 128.382 47.277,128.143 47.038,127.851 47.038 C 127.560 47.038,127.321 46.799,127.321 46.508 C 127.321 46.216,127.082 45.977,126.790 45.977 C 126.499 45.977,126.260 45.738,126.260 45.447 C 126.260 45.155,126.021 44.916,125.729 44.916 C 125.438 44.916,125.199 44.677,125.199 44.385 C 125.199 44.094,124.977 43.855,124.706 43.855 C 124.435 43.855,124.122 43.616,124.010 43.324 C 123.898 43.033,123.404 42.794,122.911 42.794 C 122.351 42.794,122.016 42.595,122.016 42.263 C 122.016 41.972,121.777 41.733,121.485 41.733 C 121.194 41.733,120.955 41.577,120.955 41.386 C 120.955 41.195,120.519 40.930,119.986 40.796 C 119.453 40.662,118.805 40.341,118.546 40.082 C 118.287 39.823,117.708 39.611,117.259 39.611 C 116.811 39.611,116.246 39.372,116.004 39.080 C 115.761 38.789,115.225 38.545,114.811 38.539 C 114.397 38.533,113.749 38.294,113.372 38.008 C 112.994 37.723,112.000 37.489,111.161 37.489 C 110.323 37.489,109.637 37.330,109.637 37.135 C 109.637 36.920,108.046 36.782,105.570 36.782 C 102.191 36.782,101.503 36.692,101.503 36.251 C 101.503 35.800,100.603 35.721,95.529 35.721 C 90.544 35.721,89.520 35.809,89.350 36.251 M149.131 37.725 C 149.001 37.854,148.895 41.117,148.895 44.975 L 148.895 51.989 166.400 51.989 L 183.905 51.989 183.995 98.939 L 184.085 145.889 191.777 145.984 L 199.469 146.079 199.469 99.038 L 199.469 51.996 217.418 51.904 L 235.367 51.813 235.463 44.871 L 235.558 37.929 234.755 37.714 C 233.656 37.419,149.425 37.430,149.131 37.725 M265.606 38.384 C 265.606 38.877,265.367 39.371,265.075 39.483 C 264.779 39.597,264.545 40.122,264.545 40.672 C 264.545 41.222,264.310 41.747,264.014 41.861 C 263.664 41.995,263.484 42.549,263.484 43.490 C 263.484 44.522,263.337 44.916,262.953 44.916 C 262.604 44.916,262.423 45.265,262.423 45.934 C 262.423 46.493,262.184 47.150,261.892 47.392 C 261.600 47.634,261.362 48.295,261.362 48.861 C 261.362 49.449,261.134 49.977,260.831 50.093 C 260.502 50.219,260.301 50.758,260.301 51.508 C 260.301 52.258,260.099 52.796,259.770 52.923 C 259.478 53.034,259.240 53.518,259.240 53.998 C 259.240 54.477,259.001 55.108,258.709 55.400 C 258.417 55.692,258.179 56.476,258.179 57.143 C 258.179 57.985,258.017 58.355,257.648 58.355 C 257.281 58.355,257.118 58.724,257.118 59.550 C 257.118 60.207,256.879 60.943,256.587 61.185 C 256.295 61.427,256.057 61.906,256.057 62.249 C 256.057 62.592,255.819 63.328,255.528 63.885 C 255.238 64.442,254.999 65.256,254.998 65.694 C 254.997 66.132,254.836 66.490,254.642 66.490 C 254.447 66.490,254.288 66.950,254.288 67.513 C 254.288 68.096,254.060 68.624,253.758 68.740 C 253.408 68.874,253.227 69.428,253.227 70.369 C 253.227 71.401,253.081 71.795,252.697 71.795 C 252.348 71.795,252.166 72.144,252.166 72.813 C 252.166 73.372,251.927 74.028,251.636 74.271 C 251.344 74.513,251.105 75.152,251.105 75.691 C 251.105 76.235,250.870 76.761,250.575 76.874 C 250.225 77.009,250.044 77.562,250.044 78.503 C 250.044 79.535,249.898 79.929,249.514 79.929 C 249.164 79.929,248.983 80.279,248.983 80.952 C 248.983 81.536,248.755 82.063,248.453 82.179 C 248.103 82.314,247.922 82.867,247.922 83.809 C 247.922 84.840,247.776 85.234,247.392 85.234 C 247.020 85.234,246.861 85.609,246.861 86.483 C 246.861 87.267,246.664 87.808,246.331 87.936 C 246.039 88.048,245.800 88.532,245.800 89.011 C 245.800 89.490,245.561 90.121,245.270 90.413 C 244.978 90.705,244.739 91.472,244.739 92.118 C 244.739 92.836,244.533 93.372,244.209 93.497 C 243.917 93.609,243.678 94.005,243.678 94.378 C 243.678 94.751,243.440 95.512,243.150 96.069 C 242.859 96.626,242.621 97.440,242.619 97.878 C 242.618 98.316,242.458 98.674,242.263 98.674 C 242.069 98.674,241.910 99.236,241.910 99.923 C 241.910 100.707,241.712 101.247,241.379 101.375 C 241.077 101.491,240.849 102.019,240.849 102.602 C 240.849 103.276,240.668 103.625,240.318 103.625 C 239.925 103.625,239.788 104.038,239.788 105.217 C 239.788 106.396,239.650 106.808,239.257 106.808 C 238.923 106.808,238.727 107.145,238.727 107.718 C 238.727 108.218,238.488 108.866,238.196 109.158 C 237.905 109.449,237.666 110.137,237.666 110.686 C 237.666 111.247,237.433 111.773,237.135 111.887 C 236.801 112.016,236.605 112.557,236.605 113.351 C 236.605 114.145,236.408 114.686,236.074 114.815 C 235.778 114.928,235.544 115.454,235.544 116.004 C 235.544 116.553,235.309 117.079,235.013 117.192 C 234.663 117.327,234.483 117.881,234.483 118.822 C 234.483 119.853,234.336 120.248,233.952 120.248 C 233.612 120.248,233.418 120.596,233.411 121.220 C 233.404 121.755,233.166 122.502,232.880 122.879 C 232.594 123.257,232.361 123.933,232.361 124.382 C 232.361 124.831,232.209 125.199,232.023 125.199 C 231.837 125.199,231.578 125.796,231.446 126.525 C 231.315 127.255,231.091 128.011,230.949 128.205 C 230.806 128.400,230.585 128.996,230.458 129.531 C 230.330 130.066,230.069 130.504,229.878 130.504 C 229.688 130.504,229.531 131.220,229.531 132.095 C 229.531 133.274,229.394 133.687,229.001 133.687 C 228.652 133.687,228.470 134.036,228.470 134.705 C 228.470 135.264,228.232 135.921,227.940 136.163 C 227.648 136.405,227.409 137.044,227.409 137.583 C 227.409 138.128,227.174 138.653,226.879 138.766 C 226.529 138.901,226.348 139.455,226.348 140.396 C 226.348 141.427,226.202 141.821,225.818 141.821 C 225.405 141.821,225.287 142.293,225.287 143.943 L 225.287 146.065 233.396 146.065 L 241.504 146.065 242.061 144.950 C 242.367 144.337,242.617 143.399,242.617 142.866 C 242.617 142.331,242.855 141.806,243.148 141.694 C 243.498 141.559,243.678 141.005,243.678 140.064 C 243.678 139.033,243.825 138.638,244.209 138.638 C 244.602 138.638,244.739 138.226,244.739 137.047 C 244.739 135.868,244.877 135.455,245.270 135.455 C 245.618 135.455,245.800 135.106,245.800 134.438 C 245.800 133.878,246.039 133.222,246.331 132.980 C 246.622 132.738,246.861 132.076,246.861 131.511 C 246.861 130.922,247.088 130.395,247.392 130.278 C 247.738 130.145,247.922 129.595,247.922 128.698 C 247.922 127.710,248.072 127.321,248.453 127.321 C 248.846 127.321,248.983 126.908,248.983 125.729 C 248.983 124.551,249.121 124.138,249.514 124.138 C 249.870 124.138,250.044 123.781,250.044 123.052 C 250.044 122.454,250.283 121.727,250.575 121.435 C 250.866 121.143,251.105 120.507,251.105 120.020 C 251.105 119.534,251.344 118.897,251.636 118.606 C 251.927 118.314,252.166 117.677,252.166 117.191 C 252.166 116.705,252.405 116.068,252.697 115.776 C 252.989 115.484,253.227 114.939,253.227 114.564 C 253.227 113.897,253.729 113.882,274.801 113.882 L 296.375 113.882 296.375 114.943 C 296.375 115.650,296.552 116.004,296.905 116.004 C 297.289 116.004,297.436 116.398,297.436 117.429 C 297.436 118.370,297.616 118.924,297.966 119.059 C 298.258 119.171,298.497 119.624,298.497 120.065 C 298.497 120.507,298.736 121.066,299.027 121.309 C 299.319 121.551,299.558 122.286,299.558 122.943 C 299.558 123.769,299.722 124.138,300.088 124.138 C 300.472 124.138,300.619 124.532,300.619 125.564 C 300.619 126.505,300.799 127.059,301.149 127.193 C 301.452 127.309,301.680 127.837,301.680 128.420 C 301.680 129.094,301.861 129.443,302.210 129.443 C 302.594 129.443,302.741 129.836,302.741 130.858 C 302.741 131.636,302.900 132.272,303.095 132.272 C 303.289 132.272,303.448 132.651,303.448 133.113 C 303.448 133.576,303.687 134.152,303.979 134.394 C 304.271 134.636,304.509 135.377,304.509 136.040 C 304.509 136.786,304.712 137.324,305.040 137.449 C 305.332 137.561,305.570 138.083,305.570 138.609 C 305.570 139.134,305.804 139.873,306.090 140.251 C 306.375 140.628,306.614 141.300,306.620 141.744 C 306.626 142.188,306.870 142.643,307.162 142.755 C 307.506 142.887,307.692 143.436,307.692 144.319 C 307.692 146.101,307.827 146.122,318.126 145.992 L 326.260 145.889 326.370 144.559 C 326.449 143.608,326.323 143.170,325.928 143.019 C 325.608 142.896,325.376 142.387,325.376 141.809 C 325.376 141.260,325.137 140.572,324.845 140.280 C 324.553 139.989,324.315 139.336,324.315 138.829 C 324.315 138.323,324.076 137.817,323.784 137.705 C 323.492 137.593,323.254 137.151,323.254 136.723 C 323.254 136.295,323.020 135.635,322.735 135.258 C 322.449 134.880,322.210 134.134,322.204 133.599 C 322.197 132.975,322.002 132.626,321.662 132.626 C 321.313 132.626,321.132 132.277,321.132 131.603 C 321.132 131.020,320.904 130.492,320.601 130.376 C 320.267 130.248,320.071 129.706,320.071 128.912 C 320.071 128.119,319.874 127.577,319.540 127.449 C 319.238 127.333,319.010 126.805,319.010 126.222 C 319.010 125.548,318.829 125.199,318.479 125.199 C 318.096 125.199,317.949 124.806,317.949 123.784 C 317.949 122.763,317.801 122.370,317.418 122.370 C 317.065 122.370,316.888 122.016,316.888 121.309 C 316.888 120.601,316.711 120.248,316.357 120.248 C 315.974 120.248,315.827 119.855,315.827 118.833 C 315.827 118.055,315.668 117.418,315.473 117.418 C 315.279 117.418,315.119 117.032,315.119 116.559 C 315.119 116.087,314.881 115.462,314.589 115.170 C 314.297 114.878,314.058 114.340,314.058 113.974 C 314.058 113.609,313.825 113.000,313.539 112.623 C 313.254 112.245,313.015 111.573,313.009 111.129 C 313.002 110.686,312.759 110.231,312.467 110.119 C 312.171 110.006,311.936 109.480,311.936 108.930 C 311.936 108.381,311.702 107.855,311.406 107.741 C 311.072 107.613,310.875 107.071,310.875 106.278 C 310.875 105.484,310.679 104.942,310.345 104.814 C 310.042 104.698,309.814 104.170,309.814 103.587 C 309.814 102.914,309.633 102.564,309.284 102.564 C 308.901 102.564,308.753 102.171,308.753 101.149 C 308.753 100.128,308.606 99.735,308.223 99.735 C 307.869 99.735,307.692 99.381,307.692 98.674 C 307.692 97.966,307.515 97.613,307.162 97.613 C 306.778 97.613,306.631 97.219,306.631 96.187 C 306.631 95.246,306.451 94.692,306.101 94.558 C 305.798 94.442,305.570 93.914,305.570 93.331 C 305.570 92.657,305.389 92.308,305.040 92.308 C 304.689 92.308,304.509 91.957,304.509 91.272 C 304.509 90.702,304.271 89.997,303.979 89.706 C 303.687 89.414,303.448 88.775,303.448 88.287 C 303.448 87.798,303.289 87.300,303.095 87.179 C 302.900 87.059,302.741 86.589,302.741 86.135 C 302.741 85.681,302.525 85.227,302.260 85.126 C 301.996 85.024,301.676 84.291,301.549 83.496 C 301.422 82.702,301.161 82.051,300.968 82.051 C 300.776 82.051,300.619 81.574,300.619 80.990 C 300.619 80.283,300.442 79.929,300.088 79.929 C 299.722 79.929,299.558 79.561,299.558 78.735 C 299.558 78.078,299.319 77.342,299.027 77.100 C 298.736 76.858,298.497 76.276,298.497 75.808 C 298.497 75.339,298.258 74.864,297.966 74.752 C 297.668 74.638,297.436 74.111,297.436 73.551 C 297.436 73.002,297.197 72.314,296.905 72.022 C 296.614 71.730,296.375 71.082,296.375 70.582 C 296.375 70.010,296.178 69.673,295.844 69.673 C 295.496 69.673,295.314 69.324,295.314 68.655 C 295.314 68.095,295.075 67.439,294.783 67.197 C 294.492 66.955,294.253 66.294,294.253 65.728 C 294.253 65.140,294.026 64.612,293.722 64.496 C 293.426 64.382,293.192 63.856,293.192 63.307 C 293.192 62.757,292.957 62.231,292.661 62.118 C 292.328 61.990,292.131 61.449,292.131 60.665 C 292.131 59.791,291.972 59.416,291.600 59.416 C 291.247 59.416,291.070 59.063,291.070 58.355 C 291.070 57.772,290.911 57.294,290.716 57.294 C 290.522 57.294,290.363 56.847,290.363 56.301 C 290.363 55.755,290.129 54.999,289.843 54.621 C 289.558 54.244,289.319 53.571,289.313 53.128 C 289.307 52.684,289.063 52.229,288.771 52.117 C 288.473 52.003,288.240 51.477,288.240 50.916 C 288.240 50.367,288.002 49.679,287.710 49.387 C 287.418 49.096,287.179 48.448,287.179 47.947 C 287.179 47.375,286.983 47.038,286.649 47.038 C 286.298 47.038,286.118 46.687,286.118 46.002 C 286.118 45.433,285.880 44.728,285.588 44.436 C 285.296 44.144,285.057 43.491,285.057 42.985 C 285.057 42.479,284.819 41.973,284.527 41.861 C 284.231 41.747,283.996 41.222,283.996 40.672 C 283.996 40.122,283.762 39.597,283.466 39.483 C 283.174 39.371,282.935 38.877,282.935 38.384 L 282.935 37.489 274.271 37.489 L 265.606 37.489 265.606 38.384 M274.733 55.819 C 274.807 56.818,275.006 57.294,275.352 57.294 C 275.712 57.294,275.862 57.714,275.862 58.720 C 275.862 59.661,276.042 60.215,276.393 60.350 C 276.738 60.482,276.923 61.032,276.923 61.930 C 276.923 62.918,277.073 63.307,277.454 63.307 C 277.845 63.307,277.984 63.715,277.984 64.860 C 277.984 65.915,278.154 66.480,278.515 66.618 C 278.865 66.752,279.045 67.306,279.045 68.247 C 279.045 69.031,279.184 69.673,279.354 69.673 C 279.523 69.673,279.764 70.309,279.888 71.088 C 280.013 71.866,280.272 72.502,280.464 72.502 C 280.656 72.502,280.813 72.949,280.813 73.496 C 280.813 74.042,281.047 74.798,281.333 75.176 C 281.618 75.553,281.857 76.300,281.863 76.835 C 281.870 77.458,282.065 77.807,282.405 77.807 C 282.789 77.807,282.935 78.201,282.935 79.233 C 282.935 80.174,283.116 80.728,283.466 80.862 C 283.764 80.977,283.996 81.503,283.996 82.064 C 283.996 82.613,284.235 83.300,284.527 83.592 C 284.819 83.884,285.057 84.532,285.057 85.032 C 285.057 85.605,285.254 85.942,285.588 85.942 C 285.981 85.942,286.118 86.354,286.118 87.533 C 286.118 88.712,286.256 89.125,286.649 89.125 C 287.000 89.125,287.179 89.476,287.179 90.160 C 287.179 90.730,287.418 91.435,287.710 91.727 C 288.002 92.018,288.240 92.746,288.240 93.343 C 288.240 94.073,288.415 94.430,288.771 94.430 C 289.154 94.430,289.302 94.823,289.302 95.844 C 289.302 96.866,289.449 97.259,289.832 97.259 C 290.196 97.259,290.363 97.625,290.363 98.426 C 290.363 99.068,290.553 99.784,290.787 100.018 C 291.117 100.348,287.541 100.442,274.695 100.442 L 258.179 100.442 258.179 99.381 C 258.179 98.674,258.355 98.320,258.709 98.320 C 259.043 98.320,259.240 97.983,259.240 97.411 C 259.240 96.910,259.478 96.262,259.770 95.971 C 260.062 95.679,260.301 94.991,260.301 94.442 C 260.301 93.882,260.533 93.355,260.831 93.241 C 261.181 93.106,261.362 92.553,261.362 91.611 C 261.362 90.580,261.508 90.186,261.892 90.186 C 262.232 90.186,262.427 89.837,262.434 89.213 C 262.440 88.678,262.679 87.932,262.964 87.554 C 263.250 87.176,263.484 86.437,263.484 85.912 C 263.484 85.386,263.722 84.865,264.014 84.753 C 264.343 84.627,264.545 84.088,264.545 83.338 C 264.545 82.588,264.747 82.049,265.075 81.923 C 265.367 81.811,265.611 81.277,265.617 80.736 C 265.623 80.195,265.862 79.443,266.147 79.066 C 266.433 78.688,266.667 78.012,266.667 77.563 C 266.667 77.114,266.826 76.746,267.020 76.746 C 267.215 76.746,267.374 76.030,267.374 75.155 C 267.374 73.976,267.512 73.563,267.905 73.563 C 268.253 73.563,268.435 73.214,268.435 72.546 C 268.435 71.986,268.674 71.330,268.966 71.088 C 269.272 70.834,269.496 70.062,269.496 69.265 C 269.496 68.362,269.680 67.812,270.027 67.679 C 270.373 67.546,270.557 66.995,270.557 66.087 C 270.557 65.180,270.741 64.629,271.088 64.496 C 271.448 64.358,271.618 63.793,271.618 62.738 C 271.618 61.593,271.757 61.185,272.149 61.185 C 272.550 61.185,272.679 60.751,272.679 59.405 C 272.679 58.150,272.835 57.566,273.210 57.422 C 273.572 57.283,273.740 56.717,273.740 55.636 C 273.740 53.579,274.579 53.734,274.733 55.819 M384.085 185.639 C 384.085 186.007,383.846 186.400,383.554 186.512 C 383.157 186.664,383.024 187.301,383.024 189.050 C 383.024 190.655,382.858 191.552,382.493 191.916 C 382.126 192.284,381.963 193.186,381.963 194.859 C 381.963 196.677,381.832 197.322,381.432 197.475 C 381.031 197.629,380.902 198.277,380.902 200.128 C 380.902 201.978,380.772 202.627,380.371 202.780 C 379.974 202.933,379.841 203.570,379.841 205.319 C 379.841 206.923,379.675 207.820,379.310 208.185 C 378.943 208.553,378.780 209.454,378.780 211.123 C 378.780 212.831,378.626 213.657,378.249 213.970 C 377.878 214.278,377.719 215.095,377.719 216.691 C 377.719 218.247,377.550 219.140,377.188 219.502 C 376.837 219.853,376.658 220.735,376.658 222.109 C 376.658 223.250,376.499 224.283,376.304 224.403 C 376.110 224.523,375.950 225.731,375.950 227.088 C 375.950 228.953,375.821 229.603,375.420 229.757 C 375.014 229.913,374.889 230.579,374.889 232.587 C 374.889 234.594,374.765 235.260,374.359 235.416 C 373.954 235.571,373.828 236.236,373.828 238.234 C 373.828 240.323,373.722 240.849,373.298 240.849 C 372.874 240.849,372.767 241.379,372.767 243.501 C 372.767 245.623,372.661 246.154,372.237 246.154 C 371.815 246.154,371.706 246.668,371.706 248.655 C 371.706 250.406,371.547 251.315,371.176 251.686 C 370.806 252.056,370.645 252.962,370.645 254.678 C 370.645 256.540,370.516 257.189,370.115 257.343 C 369.716 257.497,369.584 258.140,369.584 259.947 C 369.584 261.754,369.453 262.397,369.054 262.551 C 368.656 262.703,368.523 263.340,368.523 265.089 C 368.523 266.694,368.357 267.591,367.993 267.955 C 367.625 268.323,367.462 269.225,367.462 270.893 C 367.462 272.601,367.308 273.428,366.932 273.740 C 366.556 274.052,366.401 274.878,366.401 276.575 C 366.401 278.377,366.270 279.020,365.871 279.173 C 365.482 279.322,365.340 279.935,365.340 281.469 C 365.340 282.638,365.107 284.009,364.812 284.575 C 364.522 285.132,364.283 286.414,364.282 287.424 C 364.280 288.434,364.120 289.358,363.926 289.478 C 363.731 289.599,363.572 290.886,363.572 292.340 C 363.572 294.363,363.448 295.030,363.042 295.186 C 362.636 295.342,362.511 296.006,362.511 298.004 C 362.511 300.093,362.404 300.619,361.981 300.619 C 361.556 300.619,361.450 301.149,361.450 303.271 C 361.450 305.393,361.344 305.924,360.920 305.924 C 360.496 305.924,360.389 306.450,360.389 308.539 C 360.389 310.537,360.264 311.201,359.859 311.357 C 359.457 311.511,359.328 312.160,359.328 314.022 C 359.328 315.738,359.167 316.644,358.798 317.014 C 358.435 317.376,358.267 318.270,358.267 319.831 C 358.267 321.537,358.132 322.169,357.737 322.321 C 357.339 322.473,357.206 323.110,357.206 324.859 C 357.206 326.464,357.040 327.361,356.676 327.725 C 356.316 328.085,356.145 328.975,356.145 330.486 C 356.145 332.037,355.983 332.850,355.615 333.156 C 355.231 333.475,355.084 334.318,355.084 336.206 L 355.084 338.815 195.756 338.815 L 36.428 338.815 36.428 337.920 C 36.428 337.428,36.667 336.933,36.958 336.821 C 37.367 336.664,37.489 335.986,37.489 333.869 C 37.489 331.858,37.631 331.003,38.019 330.681 C 38.402 330.363,38.550 329.524,38.550 327.675 C 38.550 325.825,38.698 324.986,39.080 324.668 C 39.465 324.349,39.611 323.504,39.611 321.594 C 39.611 319.723,39.765 318.805,40.141 318.429 C 40.516 318.054,40.672 317.140,40.672 315.314 C 40.672 313.449,40.819 312.608,41.202 312.290 C 41.581 311.976,41.736 311.127,41.744 309.329 C 41.752 307.675,41.934 306.572,42.275 306.122 C 42.614 305.672,42.794 304.594,42.794 303.002 C 42.794 301.310,42.956 300.407,43.324 300.038 C 43.695 299.667,43.858 298.742,43.866 296.969 C 43.874 295.299,44.055 294.195,44.397 293.743 C 44.736 293.294,44.916 292.215,44.916 290.623 C 44.916 288.932,45.078 288.028,45.447 287.659 C 45.822 287.284,45.977 286.369,45.977 284.531 C 45.977 282.784,46.120 281.886,46.414 281.788 C 46.699 281.693,46.897 280.610,46.984 278.664 C 47.060 276.980,47.291 275.576,47.517 275.435 C 47.739 275.295,47.973 273.929,48.045 272.340 C 48.116 270.776,48.316 269.496,48.490 269.496 C 48.664 269.496,48.806 268.138,48.806 266.479 C 48.806 264.123,48.923 263.417,49.337 263.258 C 49.750 263.099,49.867 262.398,49.867 260.086 C 49.867 257.683,49.968 257.118,50.398 257.118 C 50.827 257.118,50.928 256.552,50.928 254.149 C 50.928 251.837,51.046 251.136,51.459 250.977 C 51.872 250.819,51.989 250.116,51.989 247.794 C 51.989 245.472,52.106 244.770,52.520 244.611 C 52.930 244.454,53.050 243.770,53.050 241.605 C 53.050 239.440,53.171 238.756,53.581 238.599 C 53.994 238.440,54.111 237.738,54.111 235.416 C 54.111 233.094,54.228 232.392,54.642 232.233 C 55.052 232.076,55.172 231.392,55.172 229.227 C 55.172 227.062,55.293 226.378,55.703 226.220 C 56.116 226.062,56.233 225.360,56.233 223.037 C 56.233 220.715,56.350 220.013,56.764 219.854 C 57.171 219.698,57.294 219.026,57.294 216.962 C 57.294 215.043,57.446 214.121,57.825 213.743 C 58.206 213.361,58.355 212.432,58.355 210.437 C 58.355 208.566,58.496 207.616,58.788 207.519 C 59.063 207.427,59.270 206.357,59.359 204.572 C 59.436 203.017,59.677 201.656,59.900 201.516 C 60.130 201.371,60.354 199.978,60.425 198.245 C 60.494 196.584,60.693 195.225,60.867 195.225 C 61.042 195.225,61.185 193.873,61.185 192.219 C 61.185 189.783,61.285 189.213,61.715 189.213 C 62.128 189.213,62.246 188.742,62.246 187.091 L 62.246 184.969 223.165 184.969 C 380.817 184.969,384.085 184.983,384.085 185.639 M75.242 207.848 C 74.654 208.001,74.627 210.798,74.712 262.007 L 74.801 316.004 108.685 316.094 C 131.639 316.155,142.790 316.065,143.256 315.816 C 143.955 315.442,144.327 304.740,143.721 302.476 L 143.507 301.680 117.377 301.680 L 91.247 301.680 91.247 254.860 L 91.247 208.040 90.451 207.827 C 89.542 207.583,76.184 207.602,75.242 207.848 M158.709 207.986 C 158.042 208.374,157.720 314.696,158.383 315.740 C 158.606 316.092,166.993 316.165,199.138 316.093 L 239.611 316.004 239.707 308.842 L 239.802 301.680 207.258 301.680 L 174.713 301.680 174.713 284.706 L 174.713 267.732 203.979 267.641 L 233.245 267.551 233.341 260.389 L 233.436 253.227 204.075 253.227 L 174.713 253.227 174.713 237.666 L 174.713 222.104 206.189 222.104 L 237.666 222.104 237.666 215.075 L 237.666 208.046 236.561 207.825 C 234.607 207.434,159.389 207.590,158.709 207.986 M251.724 207.848 C 250.947 208.051,250.868 209.726,251.636 209.726 C 251.968 209.726,252.166 210.061,252.166 210.621 C 252.166 211.114,252.405 211.608,252.697 211.720 C 252.989 211.832,253.227 212.145,253.227 212.416 C 253.227 212.687,253.466 212.909,253.758 212.909 C 254.050 212.909,254.288 213.148,254.288 213.439 C 254.288 213.731,254.430 213.970,254.604 213.970 C 254.777 213.970,255.027 214.400,255.159 214.925 C 255.290 215.450,255.766 216.221,256.216 216.638 C 256.667 217.055,257.144 217.739,257.277 218.159 C 257.410 218.578,257.667 218.921,257.849 218.921 C 258.030 218.921,258.179 219.160,258.179 219.452 C 258.179 219.744,258.400 219.982,258.671 219.982 C 258.941 219.982,259.263 220.380,259.385 220.866 C 259.507 221.353,259.763 221.751,259.954 221.751 C 260.144 221.751,260.301 222.069,260.301 222.458 C 260.301 222.851,260.536 223.165,260.831 223.165 C 261.123 223.165,261.362 223.404,261.362 223.696 C 261.362 223.988,261.600 224.226,261.892 224.226 C 262.224 224.226,262.423 224.562,262.423 225.122 C 262.423 225.614,262.661 226.109,262.953 226.220 C 263.245 226.332,263.484 226.646,263.484 226.917 C 263.484 227.188,263.704 227.409,263.973 227.409 C 264.242 227.409,264.564 227.688,264.689 228.028 C 265.130 229.232,266.002 230.592,266.332 230.592 C 266.516 230.592,266.667 230.831,266.667 231.123 C 266.667 231.415,266.823 231.653,267.014 231.653 C 267.204 231.653,267.460 232.051,267.582 232.538 C 267.704 233.024,267.946 233.422,268.120 233.422 C 268.293 233.422,268.435 233.660,268.435 233.952 C 268.435 234.244,268.656 234.483,268.927 234.483 C 269.198 234.483,269.519 234.881,269.641 235.367 C 269.763 235.853,270.019 236.251,270.210 236.251 C 270.401 236.251,270.557 236.569,270.557 236.958 C 270.557 237.351,270.793 237.666,271.088 237.666 C 271.379 237.666,271.618 237.905,271.618 238.196 C 271.618 238.488,271.857 238.727,272.149 238.727 C 272.480 238.727,272.679 239.062,272.679 239.622 C 272.679 240.114,272.918 240.609,273.210 240.721 C 273.501 240.833,273.740 241.146,273.740 241.417 C 273.740 241.688,273.979 241.910,274.271 241.910 C 274.568 241.910,274.801 242.225,274.801 242.628 C 274.801 243.023,275.040 243.438,275.332 243.550 C 275.623 243.662,275.862 243.976,275.862 244.247 C 275.862 244.517,276.101 244.739,276.393 244.739 C 276.684 244.739,276.923 244.958,276.923 245.226 C 276.923 245.494,277.162 245.912,277.454 246.154 C 277.745 246.396,277.984 246.893,277.984 247.258 C 277.984 247.623,278.223 247.922,278.515 247.922 C 278.806 247.922,279.045 248.161,279.045 248.453 C 279.045 248.744,279.187 248.983,279.360 248.983 C 279.534 248.983,279.776 249.381,279.898 249.867 C 280.020 250.354,280.276 250.752,280.467 250.752 C 280.657 250.752,280.813 250.995,280.813 251.293 C 280.813 251.591,281.052 251.926,281.344 252.038 C 281.636 252.150,281.874 252.447,281.874 252.697 C 281.874 252.947,282.113 253.243,282.405 253.355 C 282.697 253.467,282.935 253.882,282.935 254.277 C 282.935 254.680,283.169 254.996,283.466 254.996 C 283.758 254.996,283.996 255.234,283.996 255.526 C 283.996 255.818,284.235 256.057,284.527 256.057 C 284.859 256.057,285.057 256.392,285.057 256.952 C 285.057 257.444,285.296 257.939,285.588 258.051 C 285.880 258.163,286.118 258.476,286.118 258.747 C 286.118 259.018,286.357 259.240,286.649 259.240 C 286.941 259.240,287.179 259.478,287.179 259.770 C 287.179 260.062,286.941 260.301,286.649 260.301 C 286.357 260.301,286.118 260.539,286.118 260.831 C 286.118 261.123,285.880 261.362,285.588 261.362 C 285.296 261.362,285.057 261.581,285.057 261.849 C 285.057 262.117,284.819 262.534,284.527 262.776 C 284.235 263.018,283.996 263.515,283.996 263.881 C 283.996 264.246,283.758 264.545,283.466 264.545 C 283.174 264.545,282.935 264.783,282.935 265.075 C 282.935 265.367,282.697 265.606,282.405 265.606 C 282.113 265.606,281.874 265.844,281.874 266.136 C 281.874 266.428,281.728 266.667,281.549 266.667 C 281.370 266.667,281.118 267.144,280.990 267.728 C 280.862 268.311,280.558 268.789,280.315 268.789 C 280.071 268.789,279.646 269.226,279.371 269.761 C 279.095 270.296,278.670 270.861,278.427 271.017 C 278.183 271.172,277.984 271.610,277.984 271.989 C 277.984 272.369,277.745 272.679,277.454 272.679 C 277.162 272.679,276.923 272.918,276.923 273.210 C 276.923 273.501,276.684 273.740,276.393 273.740 C 276.098 273.740,275.862 274.054,275.862 274.447 C 275.862 274.836,275.706 275.155,275.515 275.155 C 275.324 275.155,275.068 275.553,274.946 276.039 C 274.824 276.525,274.503 276.923,274.232 276.923 C 273.962 276.923,273.740 277.162,273.740 277.454 C 273.740 277.745,273.501 277.984,273.210 277.984 C 272.878 277.984,272.679 278.319,272.679 278.879 C 272.679 279.372,272.440 279.866,272.149 279.978 C 271.857 280.090,271.618 280.403,271.618 280.674 C 271.618 280.945,271.379 281.167,271.088 281.167 C 270.796 281.167,270.557 281.389,270.557 281.660 C 270.557 281.931,270.318 282.244,270.027 282.356 C 269.735 282.468,269.494 282.764,269.490 283.013 C 269.487 283.262,268.853 284.182,268.081 285.057 C 267.309 285.933,266.675 287.007,266.672 287.445 C 266.669 287.914,266.449 288.240,266.136 288.240 C 265.844 288.240,265.606 288.479,265.606 288.771 C 265.606 289.063,265.367 289.302,265.075 289.302 C 264.783 289.302,264.545 289.523,264.545 289.794 C 264.545 290.065,264.306 290.378,264.014 290.490 C 263.722 290.602,263.484 291.097,263.484 291.589 C 263.484 292.149,263.285 292.485,262.953 292.485 C 262.661 292.485,262.423 292.723,262.423 293.015 C 262.423 293.307,262.184 293.546,261.892 293.546 C 261.600 293.546,261.362 293.767,261.362 294.038 C 261.362 294.309,261.123 294.622,260.831 294.734 C 260.539 294.846,260.301 295.261,260.301 295.656 C 260.301 296.059,260.068 296.375,259.770 296.375 C 259.478 296.375,259.240 296.597,259.240 296.868 C 259.240 297.139,259.001 297.452,258.709 297.564 C 258.417 297.676,258.179 298.011,258.179 298.309 C 258.179 298.607,258.022 298.851,257.832 298.851 C 257.641 298.851,257.385 299.248,257.263 299.735 C 257.141 300.221,256.819 300.619,256.549 300.619 C 256.278 300.619,256.057 300.858,256.057 301.149 C 256.057 301.441,255.897 301.680,255.703 301.680 C 255.508 301.680,255.349 301.899,255.349 302.167 C 255.349 302.435,255.111 302.852,254.819 303.095 C 254.527 303.337,254.288 303.834,254.288 304.199 C 254.288 304.564,254.050 304.863,253.758 304.863 C 253.466 304.863,253.227 305.102,253.227 305.393 C 253.227 305.685,252.989 305.924,252.697 305.924 C 252.399 305.924,252.166 306.240,252.166 306.642 C 252.166 307.038,251.927 307.452,251.636 307.564 C 251.344 307.676,251.105 307.990,251.105 308.261 C 251.105 308.532,250.866 308.753,250.575 308.753 C 250.283 308.753,250.044 308.975,250.044 309.246 C 250.044 309.517,249.805 309.830,249.514 309.942 C 249.222 310.054,248.983 310.474,248.983 310.875 C 248.983 311.277,248.744 311.696,248.453 311.808 C 248.161 311.920,247.922 312.234,247.922 312.505 C 247.922 312.776,247.702 312.997,247.432 312.997 C 246.928 312.997,246.461 314.928,246.769 315.738 C 246.897 316.076,249.074 316.180,255.997 316.180 L 265.057 316.180 266.216 314.878 C 266.853 314.162,267.374 313.282,267.374 312.922 C 267.374 312.562,267.613 312.176,267.905 312.064 C 268.196 311.952,268.435 311.639,268.435 311.368 C 268.435 311.097,268.674 310.875,268.966 310.875 C 269.257 310.875,269.496 310.654,269.496 310.383 C 269.496 310.112,269.735 309.798,270.027 309.686 C 270.318 309.574,270.557 309.080,270.557 308.588 C 270.557 308.028,270.756 307.692,271.088 307.692 C 271.379 307.692,271.618 307.454,271.618 307.162 C 271.618 306.870,271.857 306.631,272.149 306.631 C 272.479 306.631,272.679 306.297,272.679 305.747 C 272.679 305.197,272.879 304.863,273.210 304.863 C 273.501 304.863,273.740 304.641,273.740 304.370 C 273.740 304.099,273.979 303.786,274.271 303.674 C 274.562 303.562,274.801 303.244,274.801 302.967 C 274.801 302.690,275.040 302.371,275.332 302.259 C 275.623 302.147,275.862 301.733,275.862 301.337 C 275.862 300.935,276.095 300.619,276.393 300.619 C 276.684 300.619,276.923 300.380,276.923 300.088 C 276.923 299.797,277.042 299.557,277.188 299.556 C 277.544 299.553,278.691 297.508,278.691 296.877 C 278.691 296.601,278.930 296.375,279.222 296.375 C 279.514 296.375,279.752 296.136,279.752 295.844 C 279.752 295.553,279.991 295.314,280.283 295.314 C 280.637 295.314,280.813 294.960,280.813 294.253 C 280.813 293.669,280.971 293.192,281.163 293.192 C 281.681 293.192,282.935 292.037,282.935 291.560 C 282.935 291.332,283.174 291.054,283.466 290.942 C 283.758 290.830,283.996 290.415,283.996 290.020 C 283.996 289.617,284.230 289.302,284.527 289.302 C 284.819 289.302,285.057 289.080,285.057 288.809 C 285.057 288.538,285.296 288.225,285.588 288.113 C 285.880 288.001,286.118 287.581,286.118 287.179 C 286.118 286.778,286.357 286.358,286.649 286.246 C 286.941 286.134,287.179 285.821,287.179 285.550 C 287.179 285.279,287.383 285.057,287.631 285.057 C 287.879 285.057,288.396 284.343,288.780 283.469 C 289.164 282.596,289.677 281.880,289.920 281.878 C 290.164 281.876,290.363 281.636,290.363 281.344 C 290.363 281.052,290.522 280.813,290.716 280.813 C 290.911 280.813,291.070 280.490,291.070 280.095 C 291.070 279.700,291.309 279.285,291.600 279.173 C 291.892 279.061,292.131 278.765,292.131 278.515 C 292.131 278.264,292.370 277.968,292.661 277.856 C 292.953 277.744,293.192 277.250,293.192 276.757 C 293.192 276.197,293.391 275.862,293.722 275.862 C 294.014 275.862,294.253 275.640,294.253 275.369 C 294.253 275.098,294.492 274.785,294.783 274.673 C 295.075 274.561,295.314 274.067,295.314 273.574 C 295.314 273.014,295.513 272.679,295.844 272.679 C 296.136 272.679,296.375 272.918,296.375 273.210 C 296.375 273.501,296.614 273.740,296.905 273.740 C 297.229 273.740,297.436 274.070,297.436 274.586 C 297.436 275.052,297.675 275.524,297.966 275.636 C 298.258 275.748,298.497 276.084,298.497 276.381 C 298.497 276.679,298.736 276.923,299.027 276.923 C 299.358 276.923,299.558 277.257,299.558 277.807 C 299.558 278.357,299.758 278.691,300.088 278.691 C 300.380 278.691,300.619 278.935,300.619 279.233 C 300.619 279.531,300.858 279.866,301.149 279.978 C 301.441 280.090,301.680 280.488,301.680 280.862 C 301.680 281.237,301.919 281.635,302.210 281.747 C 302.502 281.859,302.741 282.114,302.741 282.314 C 302.741 282.514,303.114 283.023,303.570 283.446 C 304.025 283.868,304.506 284.642,304.637 285.166 C 304.769 285.690,305.033 286.118,305.223 286.118 C 305.414 286.118,305.570 286.357,305.570 286.649 C 305.570 286.941,305.792 287.179,306.062 287.179 C 306.333 287.179,306.654 287.577,306.777 288.064 C 306.899 288.550,307.155 288.948,307.345 288.948 C 307.536 288.948,307.692 289.192,307.692 289.489 C 307.692 289.787,307.931 290.123,308.223 290.235 C 308.515 290.347,308.753 290.643,308.753 290.893 C 308.753 291.143,308.992 291.439,309.284 291.551 C 309.576 291.663,309.814 292.078,309.814 292.473 C 309.814 292.876,310.047 293.192,310.345 293.192 C 310.637 293.192,310.875 293.431,310.875 293.722 C 310.875 294.014,311.114 294.253,311.406 294.253 C 311.760 294.253,311.936 294.607,311.936 295.314 C 311.936 296.021,312.113 296.375,312.467 296.375 C 312.759 296.375,312.997 296.614,312.997 296.905 C 312.997 297.197,313.236 297.436,313.528 297.436 C 313.825 297.436,314.058 297.752,314.058 298.154 C 314.058 298.549,314.297 298.964,314.589 299.076 C 314.881 299.188,315.119 299.523,315.119 299.820 C 315.119 300.118,315.517 300.730,316.004 301.180 C 316.490 301.631,316.888 302.251,316.888 302.558 C 316.888 302.865,317.126 303.208,317.418 303.320 C 317.710 303.432,317.949 303.751,317.949 304.028 C 317.949 304.305,318.173 304.618,318.447 304.723 C 318.722 304.828,319.043 305.300,319.161 305.773 C 319.280 306.245,319.533 306.631,319.724 306.631 C 319.915 306.631,320.071 306.870,320.071 307.162 C 320.071 307.454,320.292 307.692,320.563 307.692 C 320.834 307.692,321.155 308.090,321.277 308.576 C 321.399 309.063,321.655 309.461,321.846 309.461 C 322.037 309.461,322.193 309.779,322.193 310.168 C 322.193 310.561,322.429 310.875,322.723 310.875 C 323.015 310.875,323.254 311.114,323.254 311.406 C 323.254 311.698,323.492 311.936,323.784 311.936 C 324.116 311.936,324.315 312.272,324.315 312.832 C 324.315 313.324,324.553 313.818,324.845 313.930 C 325.137 314.042,325.376 314.356,325.376 314.627 C 325.376 314.898,325.615 315.119,325.906 315.119 C 326.198 315.119,326.437 315.361,326.437 315.656 C 326.437 316.124,327.657 316.180,336.074 316.098 L 345.712 316.004 345.832 315.151 C 345.904 314.640,345.728 314.173,345.390 313.984 C 345.081 313.811,344.828 313.280,344.828 312.803 C 344.828 312.268,344.624 311.936,344.297 311.936 C 344.005 311.936,343.767 311.698,343.767 311.406 C 343.767 311.114,343.528 310.875,343.236 310.875 C 342.912 310.875,342.706 310.546,342.706 310.029 C 342.706 309.564,342.467 309.091,342.175 308.979 C 341.883 308.867,341.645 308.532,341.645 308.234 C 341.645 307.936,341.406 307.692,341.114 307.692 C 340.822 307.692,340.584 307.471,340.584 307.200 C 340.584 306.929,340.345 306.615,340.053 306.503 C 339.761 306.391,339.523 305.977,339.523 305.581 C 339.523 305.186,339.363 304.863,339.169 304.863 C 338.974 304.863,338.815 304.624,338.815 304.332 C 338.815 304.041,338.616 303.800,338.373 303.799 C 338.130 303.797,337.617 303.081,337.233 302.207 C 336.849 301.334,336.332 300.619,336.083 300.619 C 335.835 300.619,335.632 300.397,335.632 300.126 C 335.632 299.855,335.393 299.542,335.102 299.430 C 334.810 299.318,334.571 298.898,334.571 298.497 C 334.571 298.096,334.332 297.676,334.041 297.564 C 333.749 297.452,333.510 297.139,333.510 296.868 C 333.510 296.597,333.271 296.375,332.980 296.375 C 332.682 296.375,332.449 296.059,332.449 295.656 C 332.449 295.261,332.210 294.846,331.919 294.734 C 331.627 294.622,331.388 294.399,331.388 294.237 C 331.388 294.075,330.911 293.420,330.327 292.781 C 329.744 292.142,329.266 291.337,329.266 290.991 C 329.266 290.645,329.027 290.363,328.736 290.363 C 328.444 290.363,328.205 290.124,328.205 289.832 C 328.205 289.540,327.966 289.302,327.675 289.302 C 327.353 289.302,327.144 288.973,327.144 288.469 C 327.144 288.011,326.746 287.207,326.260 286.682 C 325.774 286.158,325.376 285.594,325.376 285.431 C 325.376 285.267,325.137 285.042,324.845 284.930 C 324.553 284.818,324.315 284.477,324.315 284.172 C 324.315 283.868,323.855 283.170,323.294 282.621 C 322.732 282.072,322.165 281.282,322.032 280.864 C 321.900 280.447,321.643 280.106,321.462 280.106 C 321.280 280.106,321.132 279.867,321.132 279.576 C 321.132 279.284,320.893 279.045,320.601 279.045 C 320.309 279.045,320.071 278.806,320.071 278.515 C 320.071 278.223,319.832 277.984,319.540 277.984 C 319.187 277.984,319.010 277.630,319.010 276.923 C 319.010 276.216,318.833 275.862,318.479 275.862 C 318.187 275.862,317.949 275.623,317.949 275.332 C 317.949 275.040,317.710 274.801,317.418 274.801 C 317.121 274.801,316.888 274.485,316.888 274.083 C 316.888 273.687,316.649 273.273,316.357 273.161 C 316.065 273.049,315.827 272.723,315.827 272.437 C 315.827 272.151,315.349 271.440,314.766 270.856 C 314.182 270.273,313.705 269.569,313.705 269.292 C 313.705 269.015,313.546 268.789,313.351 268.789 C 313.156 268.789,312.997 268.550,312.997 268.258 C 312.997 267.966,312.798 267.726,312.555 267.724 C 312.312 267.722,311.799 267.006,311.415 266.133 C 311.031 265.259,310.514 264.545,310.266 264.545 C 310.017 264.545,309.814 264.306,309.814 264.014 C 309.814 263.722,309.576 263.484,309.284 263.484 C 308.952 263.484,308.753 263.148,308.753 262.588 C 308.753 262.096,308.515 261.601,308.223 261.490 C 307.931 261.378,307.692 261.064,307.692 260.793 C 307.692 260.522,307.454 260.301,307.162 260.301 C 306.793 260.301,306.631 259.930,306.631 259.088 C 306.631 258.421,306.870 257.637,307.162 257.345 C 307.454 257.053,307.692 256.644,307.692 256.436 C 307.692 256.227,307.931 256.057,308.223 256.057 C 308.515 256.057,308.753 255.818,308.753 255.526 C 308.753 255.234,308.992 254.996,309.284 254.996 C 309.581 254.996,309.814 254.680,309.814 254.277 C 309.814 253.882,310.053 253.467,310.345 253.355 C 310.637 253.243,310.875 253.015,310.875 252.848 C 310.875 252.681,311.353 252.056,311.936 251.459 C 312.520 250.862,312.997 250.135,312.997 249.844 C 312.997 249.553,313.236 249.223,313.528 249.111 C 313.820 248.999,314.058 248.758,314.058 248.575 C 314.058 248.392,314.456 247.873,314.943 247.423 C 315.455 246.948,315.827 246.211,315.827 245.671 C 315.827 245.159,315.984 244.739,316.176 244.739 C 316.714 244.739,317.949 243.576,317.949 243.069 C 317.949 242.821,318.187 242.617,318.479 242.617 C 318.809 242.617,319.010 242.283,319.010 241.733 C 319.010 241.183,319.210 240.849,319.540 240.849 C 319.832 240.849,320.071 240.610,320.071 240.318 C 320.071 240.027,320.309 239.788,320.601 239.788 C 320.893 239.788,321.132 239.569,321.132 239.301 C 321.132 239.033,321.370 238.615,321.662 238.373 C 321.954 238.131,322.193 237.634,322.193 237.269 C 322.193 236.904,322.431 236.605,322.723 236.605 C 323.015 236.605,323.254 236.366,323.254 236.074 C 323.254 235.782,323.492 235.544,323.784 235.544 C 324.076 235.544,324.315 235.305,324.315 235.013 C 324.315 234.721,324.461 234.483,324.640 234.483 C 324.819 234.483,325.071 234.005,325.199 233.422 C 325.327 232.838,325.631 232.361,325.875 232.361 C 326.118 232.361,326.543 231.923,326.819 231.388 C 327.094 230.853,327.519 230.288,327.762 230.133 C 328.006 229.977,328.205 229.540,328.205 229.160 C 328.205 228.781,328.444 228.470,328.736 228.470 C 329.027 228.470,329.266 228.232,329.266 227.940 C 329.266 227.648,329.505 227.409,329.797 227.409 C 330.088 227.409,330.327 227.108,330.327 226.740 C 330.327 226.372,330.566 225.979,330.858 225.867 C 331.149 225.755,331.388 225.340,331.388 224.945 C 331.388 224.542,331.621 224.226,331.919 224.226 C 332.210 224.226,332.449 223.988,332.449 223.696 C 332.449 223.404,332.652 223.165,332.900 223.165 C 333.149 223.165,333.666 222.451,334.050 221.577 C 334.434 220.704,334.907 219.981,335.102 219.972 C 335.445 219.955,337.754 217.038,337.754 216.620 C 337.754 216.506,338.152 216.043,338.638 215.592 C 339.125 215.142,339.523 214.428,339.523 214.007 C 339.523 213.585,339.761 213.149,340.053 213.037 C 340.345 212.925,340.584 212.612,340.584 212.341 C 340.584 212.070,340.822 211.848,341.114 211.848 C 341.406 211.848,341.645 211.609,341.645 211.317 C 341.645 211.026,341.892 210.787,342.195 210.787 C 342.625 210.787,342.722 210.455,342.637 209.284 L 342.529 207.781 334.364 207.686 L 326.200 207.591 325.257 208.465 C 324.739 208.945,324.315 209.590,324.315 209.897 C 324.315 210.204,324.076 210.547,323.784 210.659 C 323.492 210.771,323.254 211.084,323.254 211.355 C 323.254 211.626,323.015 211.848,322.723 211.848 C 322.431 211.848,322.193 212.087,322.193 212.378 C 322.193 212.670,321.954 212.909,321.662 212.909 C 321.370 212.909,321.132 213.208,321.132 213.573 C 321.132 213.938,320.893 214.435,320.601 214.677 C 320.309 214.919,320.071 215.337,320.071 215.605 C 320.071 215.873,319.832 216.092,319.540 216.092 C 319.248 216.092,319.010 216.331,319.010 216.622 C 319.010 216.914,318.811 217.155,318.568 217.157 C 318.324 217.159,317.825 217.789,317.457 218.557 C 317.089 219.324,316.413 220.305,315.954 220.736 C 315.495 221.167,315.119 221.731,315.119 221.989 C 315.119 222.247,314.881 222.458,314.589 222.458 C 314.259 222.458,314.058 222.792,314.058 223.342 C 314.058 223.892,313.858 224.226,313.528 224.226 C 313.236 224.226,312.997 224.465,312.997 224.757 C 312.997 225.049,312.759 225.287,312.467 225.287 C 312.175 225.287,311.936 225.509,311.936 225.780 C 311.936 226.051,311.698 226.364,311.406 226.476 C 311.114 226.588,310.875 227.083,310.875 227.575 C 310.875 228.135,310.677 228.470,310.345 228.470 C 310.053 228.470,309.814 228.709,309.814 229.001 C 309.814 229.293,309.576 229.531,309.284 229.531 C 308.992 229.531,308.753 229.753,308.753 230.024 C 308.753 230.295,308.515 230.608,308.223 230.720 C 307.931 230.832,307.692 231.155,307.692 231.437 C 307.692 231.719,307.066 232.602,306.300 233.399 C 305.534 234.196,304.799 235.189,304.667 235.605 C 304.535 236.021,304.047 236.713,303.584 237.143 C 303.120 237.572,302.741 238.184,302.741 238.502 C 302.741 238.820,302.585 239.080,302.394 239.080 C 302.203 239.080,301.947 239.478,301.825 239.965 C 301.703 240.451,301.382 240.849,301.111 240.849 C 300.840 240.849,300.619 241.071,300.619 241.341 C 300.619 241.612,300.380 241.926,300.088 242.038 C 299.797 242.150,299.558 242.644,299.558 243.137 C 299.558 243.697,299.359 244.032,299.027 244.032 C 298.736 244.032,298.497 244.271,298.497 244.562 C 298.497 244.854,298.258 245.093,297.966 245.093 C 297.636 245.093,297.436 245.427,297.436 245.977 C 297.436 246.527,297.235 246.861,296.905 246.861 C 296.575 246.861,296.375 246.527,296.375 245.977 C 296.375 245.427,296.174 245.093,295.844 245.093 C 295.553 245.093,295.314 244.854,295.314 244.562 C 295.314 244.271,295.075 244.032,294.783 244.032 C 294.430 244.032,294.253 243.678,294.253 242.971 C 294.253 242.263,294.076 241.910,293.722 241.910 C 293.431 241.910,293.192 241.671,293.192 241.379 C 293.192 241.088,292.953 240.849,292.661 240.849 C 292.308 240.849,292.131 240.495,292.131 239.788 C 292.131 239.168,291.945 238.727,291.684 238.727 C 291.438 238.727,290.946 238.055,290.590 237.234 C 290.234 236.413,289.560 235.386,289.092 234.952 C 288.624 234.518,288.240 233.912,288.240 233.604 C 288.240 233.297,288.002 232.954,287.710 232.842 C 287.418 232.730,287.179 232.417,287.179 232.146 C 287.179 231.875,286.941 231.653,286.649 231.653 C 286.357 231.653,286.118 231.346,286.118 230.971 C 286.118 230.596,285.880 230.051,285.588 229.759 C 285.296 229.467,285.057 229.058,285.057 228.849 C 285.057 228.641,284.819 228.470,284.527 228.470 C 284.235 228.470,283.996 228.249,283.996 227.978 C 283.996 227.707,283.758 227.393,283.466 227.281 C 283.174 227.170,282.935 226.675,282.935 226.183 C 282.935 225.623,282.737 225.287,282.405 225.287 C 282.113 225.287,281.874 225.049,281.874 224.757 C 281.874 224.465,281.636 224.226,281.344 224.226 C 281.020 224.226,280.813 223.897,280.813 223.380 C 280.813 222.915,280.575 222.442,280.283 222.330 C 279.991 222.218,279.752 221.883,279.752 221.585 C 279.752 221.287,279.514 221.043,279.222 221.043 C 278.930 221.043,278.691 220.748,278.691 220.388 C 278.691 220.027,278.294 219.303,277.807 218.778 C 277.321 218.253,276.923 217.673,276.923 217.488 C 276.923 217.304,276.684 217.153,276.393 217.153 C 276.061 217.153,275.862 216.818,275.862 216.258 C 275.862 215.765,275.623 215.271,275.332 215.159 C 275.040 215.047,274.801 214.734,274.801 214.463 C 274.801 214.192,274.562 213.970,274.271 213.970 C 273.979 213.970,273.740 213.671,273.740 213.306 C 273.740 212.941,273.501 212.444,273.210 212.202 C 272.918 211.959,272.679 211.542,272.679 211.274 C 272.679 211.006,272.440 210.787,272.149 210.787 C 271.857 210.787,271.618 210.565,271.618 210.294 C 271.618 210.023,271.379 209.710,271.088 209.598 C 270.796 209.486,270.557 209.090,270.557 208.717 C 270.557 208.314,270.235 207.954,269.761 207.827 C 268.852 207.583,252.665 207.602,251.724 207.848 " stroke="none" fill="#ffffff" fill-rule="evenodd"></path><path id="path1" d="" stroke="none" fill="#080404" fill-rule="evenodd"></path><path id="path2" d="" stroke="none" fill="#080404" fill-rule="evenodd"></path><path id="path3" d="" stroke="none" fill="#080404" fill-rule="evenodd"></path></g></svg>